<svg width="1440" height="726" viewBox="0 0 1440 726" fill="none" xmlns="http://www.w3.org/2000/svg">
<path d="M0 0H1440V473H0V0ZM0 653C0 653 290.578 718.074 480 725C667.853 731.869 772.022 689 960 689C1147.98 689 1440 725 1440 725V473H0V653ZM0 0H1440V473H0V0ZM0 653C0 653 290.578 718.074 480 725C667.853 731.869 772.022 689 960 689C1147.98 689 1440 725 1440 725V473H0V653Z" fill="#44C7FF"/>
<path fill-rule="evenodd" clip-rule="evenodd" d="M0 0H1440V473H0V0ZM0 653C0 653 290.578 718.074 480 725C667.853 731.869 772.022 689 960 689C1147.98 689 1440 725 1440 725V473H0V653ZM0 0H1440V473H0V0ZM0 653C0 653 290.578 718.074 480 725C667.853 731.869 772.022 689 960 689C1147.98 689 1440 725 1440 725V473H0V653Z" fill="#44C7FF"/>
</svg>
