<svg width="16" height="18" viewBox="0 0 16 18" fill="none" xmlns="http://www.w3.org/2000/svg">
<path fill-rule="evenodd" clip-rule="evenodd" d="M11 0.00195312C11.1313 0.00195312 11.2614 0.027819 11.3827 0.0780737C11.504 0.128328 11.6142 0.201988 11.7071 0.294846C11.8 0.387705 11.8736 0.497944 11.9239 0.61927C11.9741 0.740595 12 0.870631 12 1.00195C12 1.13328 11.9741 1.26331 11.9239 1.38464C11.8736 1.50596 11.8 1.6162 11.7071 1.70906C11.6142 1.80192 11.504 1.87558 11.3827 1.92583C11.2614 1.97609 11.1313 2.00195 11 2.00195H2V15.002C2 15.2672 2.10536 15.5215 2.29289 15.7091C2.48043 15.8966 2.73478 16.002 3 16.002H11C11.2652 16.002 11.5196 16.1073 11.7071 16.2948C11.8946 16.4824 12 16.7367 12 17.002C12 17.2672 11.8946 17.5215 11.7071 17.7091C11.5196 17.8966 11.2652 18.002 11 18.002H3C2.20435 18.002 1.44129 17.6859 0.87868 17.1233C0.316071 16.5607 0 15.7976 0 15.002V1.00195C0 0.736737 0.105357 0.482383 0.292893 0.294847C0.48043 0.10731 0.734784 0.00195313 1 0.00195312H11ZM12.707 5.29495C12.5672 5.1552 12.3891 5.06002 12.1953 5.02142C12.0014 4.98282 11.8005 5.00254 11.6178 5.07808C11.4351 5.15363 11.279 5.28161 11.169 5.44587C11.0591 5.61013 11.0002 5.80329 11 6.00095V8.00095H5C4.73478 8.00095 4.48043 8.10631 4.29289 8.29385C4.10536 8.48138 4 8.73574 4 9.00095C4 9.26617 4.10536 9.52052 4.29289 9.70806C4.48043 9.8956 4.73478 10.001 5 10.001H11V12.001C11 12.1987 11.0587 12.392 11.1686 12.5564C11.2785 12.7208 11.4346 12.849 11.6173 12.9246C11.8 13.0003 12.0011 13.0201 12.195 12.9815C12.389 12.943 12.5671 12.8478 12.707 12.708L15.707 9.70795C15.8945 9.52042 15.9998 9.26612 15.9998 9.00095C15.9998 8.73579 15.8945 8.48148 15.707 8.29395L12.707 5.29495Z" fill="white"/>
</svg>
