<svg width="76" height="68" viewBox="0 0 76 68" fill="none" xmlns="http://www.w3.org/2000/svg">
<path d="M28.5098 22.125C28.5098 24.0147 27.7591 25.8269 26.4229 27.1631C25.0867 28.4993 23.2744 29.25 21.3848 29.25C19.4951 29.25 17.6828 28.4993 16.3466 27.1631C15.0104 25.8269 14.2598 24.0147 14.2598 22.125C14.2598 20.2353 15.0104 18.4231 16.3466 17.0869C17.6828 15.7507 19.4951 15 21.3848 15C23.2744 15 25.0867 15.7507 26.4229 17.0869C27.7591 18.4231 28.5098 20.2353 28.5098 22.125Z" fill="#6E6E6E"/>
<path d="M9.50977 0.75C6.99021 0.75 4.57385 1.75089 2.79225 3.53249C1.01066 5.31408 0.00976563 7.73044 0.00976562 10.25V57.75C0.00976563 60.2696 1.01066 62.6859 2.79225 64.4675C4.57385 66.2491 6.99021 67.25 9.50977 67.25H66.5098C69.0293 67.25 71.4457 66.2491 73.2273 64.4675C75.0089 62.6859 76.0098 60.2696 76.0098 57.75V10.25C76.0098 7.73044 75.0089 5.31408 73.2273 3.53249C71.4457 1.75089 69.0293 0.75 66.5098 0.75H9.50977ZM66.5098 5.5C67.7695 5.5 68.9777 6.00044 69.8685 6.89124C70.7593 7.78204 71.2598 8.99022 71.2598 10.25V41.125L53.319 31.8767C52.8736 31.6536 52.3692 31.5762 51.8774 31.6555C51.3855 31.7348 50.931 31.9667 50.5783 32.3185L32.9558 49.941L20.3208 41.524C19.8646 41.2203 19.3174 41.0837 18.772 41.1374C18.2266 41.191 17.7165 41.4317 17.3283 41.8185L4.75977 53V10.25C4.75977 8.99022 5.26021 7.78204 6.15101 6.89124C7.04181 6.00044 8.24999 5.5 9.50977 5.5H66.5098Z" fill="#6E6E6E"/>
</svg>
