<svg width="36" height="40" viewBox="0 0 36 40" fill="none" xmlns="http://www.w3.org/2000/svg">
<path d="M18 0.833984C22.575 0.833984 26.9626 2.65139 30.1976 5.88639C33.4326 9.12139 35.25 13.509 35.25 18.084C35.25 23.9758 32.0377 28.7982 28.6528 32.2577C26.9614 33.9672 25.1162 35.5173 23.1405 36.8884L22.324 37.4442L21.9407 37.6992L21.2181 38.1592L20.5741 38.5521L19.7767 39.0159C19.2353 39.3241 18.623 39.4861 18 39.4861C17.377 39.4861 16.7647 39.3241 16.2232 39.0159L15.4259 38.5521L14.4292 37.9387L14.0612 37.6992L13.2754 37.1759C11.144 35.7333 9.15855 34.0861 7.34717 32.2577C3.96233 28.7962 0.75 23.9758 0.75 18.084C0.75 13.509 2.56741 9.12139 5.80241 5.88639C9.03741 2.65139 13.425 0.833984 18 0.833984ZM18 12.334C17.2449 12.334 16.4972 12.4827 15.7996 12.7717C15.1019 13.0606 14.4681 13.4842 13.9341 14.0181C13.4002 14.5521 12.9767 15.1859 12.6877 15.8836C12.3987 16.5812 12.25 17.3289 12.25 18.084C12.25 18.8391 12.3987 19.5868 12.6877 20.2844C12.9767 20.982 13.4002 21.6159 13.9341 22.1498C14.4681 22.6838 15.1019 23.1073 15.7996 23.3963C16.4972 23.6853 17.2449 23.834 18 23.834C19.525 23.834 20.9875 23.2282 22.0659 22.1498C23.1442 21.0715 23.75 19.609 23.75 18.084C23.75 16.559 23.1442 15.0965 22.0659 14.0181C20.9875 12.9398 19.525 12.334 18 12.334Z" fill="#00F8AD"/>
</svg>
