<svg width="22" height="22" viewBox="0 0 22 22" fill="none" xmlns="http://www.w3.org/2000/svg">
<path d="M11 0C13.9174 0 16.7153 1.03443 18.7782 2.87573C20.8411 4.71702 22 7.21436 22 9.81834C22 13.1719 19.9516 15.9166 17.7931 17.8857C16.7145 18.8587 15.5378 19.741 14.278 20.5214L13.7573 20.8378L13.5129 20.9829L13.0521 21.2447L12.6414 21.4684L12.133 21.7324C11.7877 21.9078 11.3973 22 11 22C10.6027 22 10.2123 21.9078 9.867 21.7324L9.35855 21.4684L8.723 21.1193L8.48833 20.9829L7.98722 20.6851C6.62808 19.864 5.36197 18.9264 4.20689 17.8857C2.04844 15.9155 0 13.1719 0 9.81834C0 7.21436 1.15893 4.71702 3.22183 2.87573C5.28473 1.03443 8.08262 0 11 0ZM11 6.54556C10.5185 6.54556 10.0417 6.63021 9.59683 6.79469C9.15197 6.95916 8.74776 7.20023 8.40727 7.50414C8.06679 7.80804 7.79671 8.16883 7.61244 8.5659C7.42817 8.96298 7.33333 9.38856 7.33333 9.81834C7.33333 10.2481 7.42817 10.6737 7.61244 11.0708C7.79671 11.4679 8.06679 11.8286 8.40727 12.1325C8.74776 12.4365 9.15197 12.6775 9.59683 12.842C10.0417 13.0065 10.5185 13.0911 11 13.0911C11.9725 13.0911 12.9051 12.7463 13.5927 12.1325C14.2804 11.5188 14.6667 10.6863 14.6667 9.81834C14.6667 8.95035 14.2804 8.1179 13.5927 7.50414C12.9051 6.89037 11.9725 6.54556 11 6.54556Z" fill="white"/>
</svg>
