<svg width="22" height="22" viewBox="0 0 22 22" fill="none" xmlns="http://www.w3.org/2000/svg">
<path d="M19.8444 15.0025L16.7337 14.6473C16.368 14.6044 15.9972 14.6449 15.6493 14.7658C15.3015 14.8867 14.9855 15.0849 14.7252 15.3454L12.4718 17.5989C8.99516 15.8307 6.1693 13.0048 4.40113 9.52812L6.6668 7.26244C7.19341 6.73582 7.4506 6.001 7.36487 5.25394L7.00971 2.16771C6.94028 1.57027 6.65356 1.01924 6.20416 0.61951C5.75475 0.219783 5.17404 -0.000713085 4.57258 1.73256e-06H2.45387C1.06998 1.73256e-06 -0.0812292 1.15121 0.00449886 2.53512C0.653583 12.994 9.0182 21.3464 19.4648 21.9955C20.8487 22.0812 21.9999 20.93 21.9999 19.5461V17.4274C22.0121 16.1905 21.0814 15.1495 19.8444 15.0025Z" fill="white"/>
</svg>
