<svg width="36" height="36" viewBox="0 0 36 36" fill="none" xmlns="http://www.w3.org/2000/svg">
<path d="M31.8578 24.2487L26.9895 23.6929C26.4171 23.6256 25.8368 23.689 25.2924 23.8782C24.748 24.0675 24.2535 24.3776 23.8462 24.7854L20.3195 28.312C14.8784 25.5448 10.4559 21.1223 7.68866 15.6812L11.2345 12.1354C12.0587 11.3112 12.4612 10.1612 12.327 8.99203L11.7712 4.16203C11.6625 3.22704 11.2138 2.36465 10.5104 1.73907C9.80711 1.1135 8.89828 0.768415 7.95699 0.769534H4.64116C2.47532 0.769534 0.673655 2.5712 0.807822 4.73703C1.82366 21.1054 14.9145 34.177 31.2637 35.1929C33.4295 35.327 35.2312 33.5254 35.2312 31.3595V28.0437C35.2503 26.1079 33.7937 24.4787 31.8578 24.2487Z" fill="#00F8AD"/>
</svg>
